<svg width="81" height="53" viewBox="0 0 81 53" fill="none" xmlns="http://www.w3.org/2000/svg">
<path d="M63.6316 0.85609C63.7743 0.381303 64.4466 0.381303 64.5893 0.85609L79.699 51.1317C79.7954 51.4526 79.5552 51.7756 79.2202 51.7756H49.0007C48.6656 51.7756 48.4254 51.4526 48.5218 51.1317L63.6316 0.85609Z" stroke="white"/>
<path d="M47.1527 0.712179C47.4381 -0.237393 48.7827 -0.237393 49.0681 0.712179L64.1779 50.9878C64.3707 51.6295 63.8902 52.2756 63.2202 52.2756H33.0007C32.3306 52.2756 31.8501 51.6295 32.043 50.9878L47.1527 0.712179Z" fill="#2A2E57"/>
<path opacity="0.3" d="M31.1527 0.712179C31.4381 -0.237393 32.7827 -0.237393 33.0681 0.712179L48.1779 50.9878C48.3707 51.6295 47.8902 52.2756 47.2202 52.2756H17.0007C16.3306 52.2756 15.8501 51.6295 16.043 50.9878L31.1527 0.712179Z" fill="#BDD4FF"/>
<path d="M15.1527 0.712179C15.4381 -0.237393 16.7827 -0.237393 17.0681 0.712179L32.1779 50.9878C32.3707 51.6295 31.8902 52.2756 31.2202 52.2756H1.00066C0.33059 52.2756 -0.149887 51.6295 0.0429732 50.9878L15.1527 0.712179Z" fill="url(#paint0_linear_5040:4)"/>
<path d="M64 36.5L59 33.6132V39.3868L64 36.5ZM16 37H17V36H16V37ZM19 37H21V36H19V37ZM23 37H25V36H23V37ZM27 37H29V36H27V37ZM31 37H33V36H31V37ZM35 37H37V36H35V37ZM39 37H41V36H39V37ZM43 37H45V36H43V37ZM47 37H49V36H47V37ZM51 37H53V36H51V37ZM55 37H57V36H55V37ZM59 37H61V36H59V37Z" fill="white"/>
<defs>
<linearGradient id="paint0_linear_5040:4" x1="-1.80238e-06" y1="44" x2="23" y2="21.5" gradientUnits="userSpaceOnUse">
<stop stop-color="#FDA9FF"/>
<stop offset="0.272599" stop-color="#C9B8FF"/>
<stop offset="1" stop-color="#4DFFE5"/>
</linearGradient>
</defs>
</svg>
