<svg width="231" height="275" viewBox="0 0 231 275" fill="none" xmlns="http://www.w3.org/2000/svg">
<g clip-path="url(#clip0_4996_758)">
<path d="M129.287 93.3308C129.793 92.5331 130.399 91.8032 131.09 91.1588C132.116 90.2085 133.323 89.4735 134.64 88.9974C135.861 88.5612 137.15 88.3416 138.448 88.3489C140.001 88.3384 141.539 88.6564 142.959 89.282C144.104 89.7957 145.147 90.5099 146.038 91.3907C146.711 92.0513 147.296 92.7955 147.778 93.6049C148.485 94.8122 149 96.1208 149.307 97.4848C149.617 98.8886 149.768 100.323 149.756 101.76C149.778 103.458 149.56 105.151 149.111 106.79C148.779 107.985 148.275 109.127 147.614 110.179C147.108 110.977 146.502 111.707 145.811 112.351C144.782 113.3 143.573 114.035 142.256 114.513C141.034 114.946 139.745 115.166 138.448 115.161C136.895 115.17 135.357 114.852 133.936 114.228C132.793 113.714 131.753 113 130.863 112.119C130.19 111.459 129.605 110.714 129.123 109.905C128.414 108.699 127.898 107.39 127.594 106.025C127.284 104.621 127.132 103.187 127.139 101.75C127.123 100.051 127.342 98.359 127.79 96.7205C128.122 95.5246 128.626 94.3829 129.287 93.3308Z" fill="#16183C"/>
<path d="M46.2453 109.889C45.5385 108.682 45.0231 107.373 44.7169 106.009C44.4062 104.606 44.2551 103.171 44.267 101.734C44.2458 100.036 44.4634 98.3429 44.9126 96.7047C45.2451 95.5088 45.7488 94.3671 46.409 93.315C46.9149 92.5174 47.5211 91.7874 48.2128 91.143C49.2413 90.1937 50.4501 89.4589 51.7676 88.9817C54.4777 88.0276 57.4492 88.1292 60.0874 89.2662C61.2302 89.78 62.2713 90.4943 63.1607 91.3749C63.8337 92.0355 64.4181 92.7798 64.9004 93.5892C65.6093 94.7954 66.1254 96.1044 66.4294 97.4691C66.7392 98.873 66.8914 100.307 66.8839 101.745C66.9003 103.443 66.6817 105.135 66.2336 106.774C65.9012 107.97 65.3969 109.111 64.7367 110.163C64.2308 110.961 63.6246 111.691 62.9329 112.335C61.9072 113.286 60.7003 114.021 59.3838 114.497C58.1615 114.93 56.8729 115.15 55.5754 115.145C54.0222 115.156 52.4848 114.838 51.064 114.212C49.9196 113.698 48.8768 112.984 47.9855 112.103C47.3125 111.443 46.7276 110.699 46.2453 109.889Z" fill="#16183C"/>
<path d="M97.0219 111.123C113.784 111.123 122.215 121.598 122.215 130.307C122.215 139.722 112.768 140.56 97.0219 140.56C81.2756 140.56 71.8238 139.722 71.8238 130.307C71.8027 122.541 80.2336 111.123 97.0219 111.123Z" fill="#16183C"/>
<path d="M2.31017 201.291C3.53727 198.088 5.24174 195.088 7.36653 192.392C10.9302 187.94 15.4271 184.318 20.5423 181.78C24.082 179.996 27.8066 178.603 31.6498 177.626C30.8776 175.517 30.0629 173.25 29.2748 170.799C25.7811 160.116 22.974 149.222 20.8703 138.183C18.3042 125.066 16.9653 111.739 16.8713 98.3757C16.8713 86.488 18.0932 74.4738 21.2086 63.013C23.4865 54.3771 27.039 46.1263 31.75 38.531C35.4048 32.7094 39.8455 27.4163 44.947 22.8002C52.791 15.7045 62.5603 9.95828 74.3502 6.04139C86.14 2.12449 99.9506 0.00527173 116.041 0C118.322 0 120.648 0.0439311 123.017 0.131793H123.15H123.287C140.742 1.455 155.229 5.24532 167.088 11.0179C175.413 15.0009 182.967 20.4173 189.403 27.0176C193.798 31.5688 197.594 36.6582 200.701 42.1633C205.137 50.1338 208.327 58.7326 210.159 67.6626C211.951 76.3569 212.827 85.2141 212.771 94.0899C212.771 112.915 209.323 130.749 205.895 143.971C204.224 150.429 202.553 155.78 201.267 159.591C204.849 161.276 208.241 163.337 211.386 165.738C215.95 169.22 219.898 173.44 223.064 178.222C225.683 182.172 227.699 186.487 229.047 191.026C230.332 195.375 230.983 199.884 230.982 204.417C230.948 214.749 227.656 224.81 221.572 233.176C215.488 241.543 206.92 247.792 197.078 251.04C191.196 253.026 185.03 254.051 178.82 254.076C170.834 254.064 162.95 252.293 155.732 248.889L155.684 248.963C153.393 252.684 150.677 256.128 147.592 259.227C142.692 264.148 136.855 268.043 130.423 270.682C123.116 273.609 115.303 275.072 107.43 274.989H106.329C97.438 274.858 89.5995 272.96 82.9773 269.649C78.1876 267.263 73.8594 264.05 70.1931 260.16C66.9943 256.747 64.2948 252.901 62.1744 248.736C55.6933 251.419 48.7542 252.831 41.7367 252.896C34.8878 252.908 28.1216 251.403 21.9281 248.488C17.8408 246.582 14.115 243.985 10.9156 240.813C7.66663 237.589 5.06517 233.776 3.2513 229.579C1.12197 224.649 0.0136475 219.341 -0.00699792 213.974C-0.0182008 209.641 0.767446 205.342 2.31017 201.291V201.291ZM152.072 212.493C152.088 209.101 151.744 205.717 151.045 202.398C150.608 200.321 149.962 198.293 149.115 196.346C148.607 195.18 147.983 194.067 147.253 193.024C146.817 192.409 146.325 191.836 145.783 191.311C145.183 190.719 144.48 190.24 143.709 189.898C143.04 189.614 142.32 189.468 141.593 189.471C140.963 189.477 140.336 189.56 139.726 189.719V189.719C138.783 189.939 137.887 190.326 137.082 190.863C136.613 191.181 136.194 191.567 135.838 192.007C135.238 192.775 134.794 193.652 134.532 194.59C134.16 195.907 133.982 197.271 134.003 198.639C134.026 200.657 134.289 202.666 134.786 204.622C135.912 208.949 137.696 213.079 140.076 216.869C142.067 220.101 144.395 223.116 147.02 225.862C147.919 226.806 148.866 227.712 149.84 228.593C151.324 223.354 152.075 217.936 152.072 212.493ZM88.5998 192.629C87.9633 191.817 87.1723 191.138 86.2723 190.631C85.249 190.19 84.1498 189.95 83.0352 189.925C82.3137 189.929 81.5982 190.055 80.9194 190.299C80.2382 190.551 79.5946 190.893 79.0052 191.316C77.5873 192.368 76.366 193.66 75.3977 195.133C73.3206 198.31 71.7967 201.814 70.8909 205.497C69.7194 209.999 69.1367 214.633 69.1564 219.283C69.1557 222.418 69.414 225.548 69.9286 228.64C71.9516 227.116 73.8819 225.474 75.7097 223.722C79.9689 219.699 83.5829 215.047 86.4257 209.931C87.5823 207.828 88.5199 205.613 89.2238 203.32C89.7828 201.537 90.0824 199.684 90.1127 197.817C90.1205 196.978 90.0318 196.141 89.8482 195.323C89.631 194.357 89.2109 193.448 88.6158 192.655L88.5998 192.629ZM15.8821 224.196C17.0114 226.788 18.6272 229.141 20.6425 231.129C22.7174 233.182 25.1332 234.862 27.7831 236.095C32.1439 238.153 36.9116 239.214 41.7367 239.2C44.7355 239.188 47.7218 238.82 50.633 238.103C52.9401 237.535 55.2001 236.792 57.3929 235.878C54.8498 225.452 54.7375 214.582 57.0649 204.106C57.8502 200.599 58.977 197.178 60.429 193.889C61.4636 191.548 62.7175 189.31 64.1739 187.204C66.2657 184.106 68.9644 181.461 72.1079 179.429C73.7142 178.415 75.4506 177.622 77.2701 177.072C79.1427 176.505 81.089 176.218 83.046 176.218C86.1641 176.246 89.2423 176.919 92.0854 178.195L92.371 178.316L92.6463 178.469C94.4526 179.45 96.1149 180.674 97.5864 182.107C99.7131 184.186 101.356 186.706 102.4 189.487C103.388 192.162 103.882 194.993 103.859 197.843C103.828 201.077 103.324 204.29 102.362 207.379C100.505 213.184 97.6999 218.644 94.0585 223.537C91.1394 227.54 87.8335 231.248 84.1886 234.608C81.1145 237.445 77.8136 240.028 74.3186 242.331C74.7788 243.238 75.2656 244.118 75.7892 244.967C77.2135 247.312 78.9087 249.483 80.8404 251.435C83.8491 254.448 87.4358 256.826 91.387 258.426C96.2111 260.321 101.351 261.294 106.536 261.293H107.44C115.649 261.293 122.324 259.58 127.878 256.797C131.905 254.77 135.543 252.054 138.626 248.773C140.665 246.601 142.477 244.227 144.032 241.688C142.822 240.739 141.653 239.758 140.525 238.746C134.449 233.269 129.43 226.73 125.715 219.452C124.012 216.116 122.652 212.617 121.658 209.008C120.715 205.629 120.223 202.141 120.193 198.634C120.177 196.233 120.469 193.839 121.06 191.512C121.512 189.757 122.174 188.063 123.033 186.466C124.368 183.999 126.215 181.843 128.449 180.14C130.812 178.374 133.512 177.11 136.383 176.424V176.424C138.084 175.997 139.829 175.777 141.583 175.77C145.395 175.766 149.123 176.895 152.288 179.012C154.751 180.673 156.879 182.779 158.561 185.222C161.134 189.012 162.997 193.234 164.062 197.685C165.266 202.53 165.859 207.506 165.829 212.498C165.816 219.644 164.747 226.75 162.655 233.585C162.354 234.566 162.026 235.536 161.677 236.511C167.05 239.037 172.915 240.352 178.856 240.365C183.591 240.341 188.291 239.552 192.773 238.029C197.25 236.558 201.39 234.216 204.954 231.139C208.517 228.062 211.433 224.312 213.533 220.105C215.974 215.236 217.251 209.87 217.267 204.427C217.267 201.215 216.804 198.019 215.892 194.938C214.931 191.695 213.49 188.612 211.619 185.792C209.29 182.285 206.39 179.19 203.039 176.635C199.214 173.735 194.938 171.479 190.382 169.955L183.569 167.615L186.214 160.946C188.797 154.07 190.985 147.052 192.767 139.928C195.941 127.534 199.041 110.981 199.03 94.1321C199.03 84.7273 198.073 75.2434 195.708 66.3394C194.006 59.7167 191.37 53.368 187.88 47.4825C185.214 43.0312 181.981 38.9417 178.264 35.3153C172.536 29.7326 165.348 24.9247 156.171 21.1976C146.994 17.4705 135.897 14.8716 122.393 13.8541C120.228 13.7768 118.112 13.7364 116.046 13.7329C98.406 13.7329 84.384 16.49 73.2923 21.0869C65.6858 24.1523 58.7299 28.624 52.7911 34.2663C48.754 38.1712 45.2682 42.6049 42.4294 47.4456C38.1979 54.6362 35.2148 62.7336 33.3265 71.3687C31.4649 80.2603 30.5608 89.3245 30.6292 98.4074C30.6292 115.324 33.3424 132.468 36.8281 147.018C38.5683 154.298 40.4934 160.925 42.3447 166.56C44.1959 172.196 45.9784 176.83 47.3907 180.051L51.0193 188.359L42.0275 189.577C37.2445 190.151 32.573 191.426 28.1643 193.362C25.7077 194.463 23.4152 195.896 21.3517 197.621C18.8508 199.7 16.8605 202.322 15.5334 205.287C14.3357 208.041 13.7263 211.014 13.7452 214.017C13.7741 217.519 14.5063 220.98 15.8981 224.196H15.8821Z" fill="#16183C"/>
</g>
<defs>
<clipPath id="clip0_4996_758">
<rect width="231" height="275" fill="white" transform="matrix(-1 0 0 1 231 0)"/>
</clipPath>
</defs>
</svg>
