<svg width="235" height="331" viewBox="0 0 235 331" fill="none" xmlns="http://www.w3.org/2000/svg">
<g clip-path="url(#clip0_4952:873)">
<path d="M217.821 240.151C215.155 237.218 212.185 234.575 208.961 232.265C213.032 224.877 216.703 217.277 219.959 209.497C223.98 199.999 227.285 190.215 229.847 180.227C232.755 169.12 234.284 157.698 234.4 146.219C234.464 137.439 233.291 128.695 230.916 120.241C228.198 110.598 223.552 101.604 217.256 93.8016C221.48 86.6214 223.903 78.529 224.317 70.2134V70.2134C224.317 69.2801 224.39 68.3468 224.39 67.4135C224.399 57.1784 221.373 47.1693 215.694 38.6461V38.6461C216.439 37.8317 217.037 36.8949 217.462 35.877C217.913 34.7729 218.147 33.5926 218.15 32.4003C218.146 31.5085 218.018 30.6215 217.77 29.7646C217.43 28.6032 216.903 27.505 216.208 26.5135C215.562 25.5915 214.814 24.7452 213.978 23.9906V23.9906C212.957 23.0342 211.799 22.2325 210.544 21.6113C209.889 21.2824 209.2 21.0245 208.489 20.8421C207.703 20.6396 206.895 20.5362 206.084 20.5344C203.673 20.5257 201.356 21.4696 199.64 23.1599C192.178 18.5447 183.668 15.8848 174.901 15.427V15.427C173.955 15.3757 173.02 15.3552 172.095 15.3552C168.528 15.3548 164.97 15.7226 161.478 16.4526C156.265 11.588 150.171 7.75923 143.522 5.17122C135.238 1.88937 125.412 0.043335 113.829 0.043335C112.503 0.043335 111.157 0.0433425 109.79 0.115133H109.543C103.296 0.4534 97.1292 1.67584 91.2273 3.74572C87.6084 5.0434 84.209 6.8831 81.145 9.20173C79.0777 10.7842 77.2254 12.6287 75.6356 14.6886C73.4419 17.5741 71.8008 20.8389 70.7947 24.3188C69.873 27.5821 69.4159 30.9586 69.4377 34.3489C69.5077 39.003 70.1783 43.6288 71.4321 48.1121C72.9818 53.7585 75.0956 59.2352 77.7424 64.4598C78.6058 66.2033 79.4077 67.6597 80.0449 68.7981C71.7614 73.8882 64.5212 80.5005 58.708 88.284C53.9978 94.5982 50.0706 101.458 47.0118 108.714C42.4549 119.659 39.2651 131.122 37.5147 142.845C35.7722 154.162 34.9195 165.598 34.9653 177.048C34.9688 187.009 35.5354 196.963 36.6615 206.861C37.1549 211.22 37.6897 215.209 38.3167 218.737C38.3167 219.014 38.4088 219.291 38.4602 219.558C33.6934 219.876 28.9919 220.835 24.4825 222.409C20.5555 223.798 16.8719 225.795 13.5672 228.327C9.12003 231.793 5.59124 236.293 3.28916 241.433C1.12484 246.239 0.00376592 251.446 0 256.715C0.00588957 259.748 0.350617 262.772 1.0278 265.729C2.05979 270.196 3.93642 274.425 6.55724 278.19C9.13545 281.901 12.3381 285.138 16.0232 287.759C20.1583 290.713 24.7527 292.969 29.6215 294.435C34.2505 295.812 39.057 296.503 43.8872 296.486C47.845 296.474 51.7913 296.062 55.6658 295.256C56.752 298.891 58.2449 302.394 60.1162 305.696C63.428 311.531 67.9905 316.563 73.4776 320.434C79.7758 324.775 86.9261 327.732 94.4552 329.11C98.6843 329.966 102.987 330.406 107.303 330.423C111.94 330.434 116.559 329.866 121.055 328.731C128.271 326.889 135.011 323.537 140.829 318.895C143.368 316.881 145.734 314.658 147.901 312.25C149.247 313.203 150.634 314.116 152.083 314.957C156.121 317.322 160.45 319.153 164.962 320.403C169.784 321.741 174.767 322.414 179.773 322.403C182.627 322.401 185.477 322.199 188.303 321.798C195.668 320.77 202.706 318.102 208.897 313.993C215.089 309.883 220.274 304.436 224.07 298.056C228.551 290.57 230.927 282.017 230.947 273.298C230.939 266.865 229.631 260.499 227.103 254.581C224.838 249.288 221.7 244.411 217.821 240.151V240.151ZM174.212 29.1492C179.198 29.3936 184.087 30.6132 188.601 32.7387C195.13 35.8169 200.663 40.6597 204.573 46.7174C208.593 52.8867 210.735 60.0859 210.74 67.4443C210.74 68.1314 210.74 68.8186 210.74 69.4954C210.506 73.9758 209.487 78.3806 207.729 82.51L207.327 83.392C204.849 81.2669 202.252 79.2843 199.548 77.4539C194.591 74.1064 189.354 71.1931 183.894 68.7467L183.647 67.0853C182.72 60.2872 181.312 53.5631 179.433 46.9635C177.765 41.1806 175.44 35.6065 172.506 30.3492C172.269 29.9184 172.023 29.4979 171.766 29.0774H172.28C172.849 29.0843 173.493 29.1082 174.212 29.1492ZM84.4231 27.0981C84.9966 25.4953 85.8374 24.0008 86.9103 22.6778C87.8077 21.5721 88.844 20.5863 89.9937 19.7447C92.3776 18.0774 95.0204 16.8127 97.8156 16.0013C101.919 14.7966 106.146 14.0637 110.416 13.8168C111.574 13.7758 112.715 13.7553 113.839 13.7553C119.849 13.6891 125.846 14.3608 131.692 15.7552C135.74 16.7232 139.647 18.2053 143.317 20.1652C146.095 21.6584 148.691 23.465 151.055 25.5494C154.898 28.9792 158.119 33.0456 160.574 37.5692C164.106 44.2586 166.623 51.4336 168.045 58.8602C168.343 60.296 168.611 61.7011 168.857 63.0959C166.26 62.2686 163.612 61.513 160.912 60.8293H160.789H160.645C149.605 58.2952 138.322 56.9645 126.994 56.8603C118.367 56.7977 109.768 57.8316 101.403 59.9371C98.3526 60.7263 95.35 61.6884 92.4096 62.8189C90.8006 60.0251 89.3527 57.142 88.0726 54.1836C86.7075 51.0571 85.5731 47.835 84.68 44.5431C83.7699 41.2437 83.2838 37.8424 83.2317 34.4207C83.1818 31.9322 83.5672 29.454 84.3719 27.0981H84.4231ZM89.9325 242.203C90.7749 242.902 91.4583 243.773 91.9369 244.756C92.3935 245.746 92.6181 246.826 92.5943 247.915C92.5622 249.475 92.2673 251.017 91.7211 252.479C91.0963 254.187 90.2969 255.826 89.3363 257.371C87.1988 260.753 84.6205 263.836 81.6689 266.54C77.2646 270.638 72.299 274.092 66.9204 276.795C66.996 272.222 67.6168 267.674 68.7702 263.247C69.6166 259.964 70.78 256.769 72.2441 253.71C73.213 251.693 74.3506 249.761 75.6456 247.936C77.1289 245.777 78.9925 243.904 81.145 242.408C81.9067 241.898 82.7324 241.491 83.6011 241.198C84.2886 240.96 85.0113 240.839 85.739 240.839C86.4375 240.835 87.132 240.946 87.7946 241.167C88.5488 241.419 89.2675 241.767 89.9325 242.203V242.203ZM148.856 283.38C147.982 286.012 146.921 288.579 145.681 291.061C142.478 286.898 139.905 282.288 138.043 277.38C136.227 272.776 135.246 267.887 135.146 262.94C135.122 261.074 135.337 259.213 135.783 257.402C136.033 256.373 136.413 255.381 136.913 254.448C137.198 253.912 137.543 253.409 137.941 252.951C138.473 252.366 139.115 251.892 139.832 251.556C140.752 251.142 141.743 250.909 142.751 250.869H143.327C143.927 250.865 144.524 250.941 145.104 251.094C145.518 251.197 145.916 251.356 146.287 251.566C147.017 251.973 147.657 252.525 148.168 253.187C149.34 254.748 150.183 256.531 150.645 258.427C151.362 261.155 151.708 263.966 151.673 266.786C151.614 272.43 150.664 278.03 148.856 283.38V283.38ZM214.892 285.431C212.614 291.426 208.763 296.699 203.741 300.699C198.72 304.699 192.713 307.279 186.35 308.168C184.164 308.477 181.959 308.635 179.752 308.639C171.218 308.681 162.89 306.028 155.959 301.06C158.456 296.728 160.498 292.15 162.053 287.4C164.261 280.751 165.419 273.8 165.486 266.796C165.509 263.254 165.13 259.72 164.356 256.263C163.801 253.781 162.959 251.372 161.847 249.084C161.008 247.417 159.984 245.848 158.795 244.408C156.971 242.168 154.686 240.346 152.094 239.064C149.363 237.756 146.367 237.089 143.337 237.116C142.854 237.116 142.371 237.116 141.877 237.167C138.655 237.33 135.512 238.225 132.689 239.782C130.675 240.914 128.874 242.385 127.365 244.131C125.207 246.698 123.614 249.689 122.689 252.91C121.748 256.176 121.284 259.561 121.311 262.96C121.421 269.678 122.744 276.321 125.217 282.569C127.191 287.698 129.782 292.568 132.935 297.071C134.381 299.126 135.943 301.099 137.612 302.978C137.242 303.389 136.872 303.809 136.492 304.209C132.88 307.982 128.578 311.031 123.819 313.193C118.606 315.506 112.955 316.674 107.25 316.618C103.84 316.611 100.439 316.267 97.0959 315.593C92.0271 314.666 87.1755 312.805 82.7891 310.106C80.0905 308.392 77.6652 306.283 75.5945 303.85C72.6146 300.314 70.3783 296.216 69.0171 291.8L68.8013 291.071C73.3358 289.13 77.6748 286.764 81.7613 284.005C85.1674 281.712 88.3819 279.146 91.3718 276.334C95.5727 272.444 99.1683 267.95 102.04 263.001C103.355 260.677 104.416 258.219 105.206 255.668C105.98 253.163 106.385 250.558 106.408 247.936C106.422 244.827 105.752 241.753 104.445 238.931C103.037 235.983 100.977 233.392 98.4218 231.352L98.1749 231.157L97.918 230.983C96.094 229.741 94.1047 228.761 92.0081 228.07C89.9923 227.402 87.8842 227.056 85.76 227.045C83.1775 227.048 80.6177 227.535 78.2151 228.48C76.1668 229.283 74.2324 230.348 72.4599 231.649C69.3193 234 66.5774 236.84 64.3399 240.059C60.6895 245.306 57.9129 251.107 56.1175 257.238C54.1315 263.839 53.1174 270.693 53.1063 277.585C53.1063 278.939 53.1064 280.293 53.2298 281.687C50.147 282.359 47.0016 282.703 43.8461 282.713C40.3663 282.734 36.9026 282.24 33.5681 281.246C30.1438 280.223 26.9139 278.639 24.0098 276.559C21.6178 274.874 19.5321 272.793 17.843 270.406C16.2217 268.079 15.06 265.465 14.4203 262.704C13.9739 260.749 13.7462 258.75 13.7418 256.745C13.7262 253.784 14.2629 250.845 15.3247 248.079C16.1156 246.024 17.2328 244.109 18.6339 242.408C21.0697 239.527 24.1804 237.29 27.6894 235.895C32.7262 233.936 38.1025 232.995 43.5068 233.126C44.4627 233.126 45.4387 233.126 46.4357 233.198L55.5524 233.629L53.4968 224.768C52.9726 222.563 52.4075 219.753 51.8627 216.471C49.7511 203.436 48.6924 190.252 48.697 177.048C48.6252 164.563 49.7266 152.099 51.9862 139.819C53.6688 130.682 56.3648 121.759 60.0239 113.216C62.6538 107.148 66 101.415 69.9928 96.1399C72.921 92.3009 76.2728 88.8023 79.9837 85.7098C85.8515 80.8444 92.5744 77.1094 99.81 74.6951C108.577 71.8444 117.755 70.4583 126.974 70.5928C137.257 70.6991 147.499 71.9128 157.52 74.2131C170.183 77.5359 180.4 81.9152 188.591 86.9713C194.251 90.4117 199.404 94.6191 203.905 99.473C209.723 105.811 214.127 113.309 216.825 121.472C219.414 129.488 220.687 137.869 220.597 146.291C220.486 156.638 219.105 166.933 216.485 176.945C213.046 190.149 208.295 202.978 202.302 215.24C199.928 220.153 197.79 224.111 196.269 226.829C195.498 228.183 194.891 229.229 194.47 229.906L194.007 230.685L193.895 230.87L190.071 237.023L196.361 240.562C200.587 242.888 204.405 245.884 207.667 249.433C210.505 252.56 212.802 256.137 214.461 260.017C217.951 268.122 218.132 277.266 214.965 285.502L214.892 285.431Z" fill="#16183C"/>
<path d="M126.728 153.211C126.154 156.649 125.171 160.006 123.799 163.21C123.006 165.024 122.013 166.744 120.839 168.338C119.565 170.119 117.925 171.609 116.028 172.707C114.569 173.528 112.924 173.962 111.25 173.969C110.646 173.969 110.044 173.914 109.451 173.805V173.805C108.131 173.583 106.87 173.09 105.75 172.359C104.881 171.793 104.102 171.102 103.438 170.307C102.193 168.739 101.266 166.946 100.705 165.026C99.9142 162.314 99.5325 159.501 99.5734 156.677C99.5911 153.946 99.8458 151.222 100.334 148.534L86.767 146.135C86.1162 149.612 85.7723 153.14 85.7392 156.677C85.7086 160.438 86.1747 164.187 87.1263 167.826C87.7873 170.326 88.7503 172.736 89.9939 175.005C91.7691 178.227 94.2238 181.026 97.1885 183.209C100.109 185.34 103.482 186.772 107.046 187.393V187.393C108.434 187.639 109.84 187.763 111.25 187.763C114.787 187.756 118.278 186.957 121.465 185.424C123.911 184.237 126.16 182.684 128.136 180.82C131.318 177.77 133.904 174.157 135.762 170.164C137.934 165.538 139.462 160.639 140.305 155.601L126.728 153.201V153.211Z" fill="#16183C"/>
<path d="M167.552 137.274C166.764 136.012 165.712 134.934 164.468 134.115C163.324 133.354 162.05 132.812 160.707 132.515V132.515C159.882 132.324 159.037 132.228 158.189 132.228C156.777 132.222 155.379 132.501 154.078 133.048C153.075 133.468 152.142 134.039 151.313 134.74C150.09 135.789 149.082 137.064 148.343 138.494C147.585 139.956 147.025 141.511 146.678 143.119C146.356 144.502 146.187 145.915 146.174 147.334C146.164 148.646 146.348 149.952 146.719 151.211C147.001 152.167 147.408 153.08 147.931 153.929C148.722 155.189 149.773 156.266 151.015 157.088C152.158 157.849 153.434 158.392 154.777 158.688C155.595 158.88 156.433 158.976 157.274 158.975C159.779 158.975 162.203 158.084 164.109 156.462C165.335 155.414 166.347 154.139 167.09 152.709C167.847 151.247 168.407 149.692 168.755 148.083V148.083C169.073 146.7 169.238 145.287 169.248 143.868C169.261 142.557 169.081 141.251 168.714 139.991C168.443 139.04 168.052 138.127 167.552 137.274V137.274Z" fill="#16183C"/>
<path d="M86.8506 132.946C87.1489 131.668 87.3042 130.36 87.3133 129.048C87.3195 127.788 87.1389 126.533 86.7783 125.326C86.506 124.404 86.1089 123.524 85.597 122.71C84.8382 121.485 83.8248 120.436 82.626 119.634C81.527 118.909 80.3045 118.391 79.0186 118.105C78.2159 117.924 77.3957 117.831 76.5726 117.829C74.1733 117.821 71.8495 118.664 70.0153 120.208C68.8386 121.203 67.8649 122.414 67.1477 123.777C66.4262 125.144 65.8968 126.604 65.5749 128.115C65.2766 129.396 65.1213 130.707 65.1122 132.022C65.1025 133.282 65.2799 134.537 65.6371 135.745C65.915 136.667 66.3152 137.546 66.8285 138.361C67.5865 139.583 68.5962 140.632 69.7895 141.437C70.8934 142.158 72.1188 142.672 73.4069 142.955V142.955C74.2036 143.13 75.0171 143.219 75.8328 143.222C77.1733 143.23 78.5014 142.968 79.7383 142.453C80.7003 142.054 81.5973 141.515 82.4001 140.853C83.5745 139.858 84.545 138.646 85.2577 137.284C85.9765 135.911 86.5089 134.448 86.8406 132.935L86.8506 132.946Z" fill="#16183C"/>
</g>
<defs>
<clipPath id="clip0_4952:873">
<rect width="234.4" height="330.4" fill="white"/>
</clipPath>
</defs>
</svg>
