<svg width="127" height="145" viewBox="0 0 127 145" fill="none" xmlns="http://www.w3.org/2000/svg">
<g clip-path="url(#clip0_4996_774)">
<path d="M59.0996 50.378C58.8953 49.9665 58.6388 49.5824 58.3363 49.2352C57.8874 48.7227 57.3392 48.3047 56.7243 48.0059C56.1534 47.7314 55.5385 47.5578 54.9076 47.4933C54.1534 47.4067 53.3898 47.4796 52.6669 47.7071C52.0841 47.895 51.5401 48.185 51.0612 48.5634C50.6998 48.8469 50.3768 49.1755 50.1003 49.5408C49.694 50.0864 49.3754 50.691 49.1556 51.3333C48.9316 51.9945 48.7834 52.6788 48.7143 53.3732C48.6156 54.1917 48.6329 55.0201 48.7659 55.8343C48.8651 56.429 49.0507 57.0064 49.3167 57.5488C49.521 57.9603 49.7775 58.3443 50.0801 58.6916C50.5304 59.2037 51.0795 59.6218 51.6948 59.9212C52.2661 60.1947 52.8805 60.3681 53.5113 60.4338C54.2654 60.5198 55.0291 60.4469 55.7522 60.22C56.3342 60.0319 56.8771 59.7418 57.3551 59.3634C57.7165 59.0799 58.0395 58.7514 58.316 58.386C58.7233 57.841 59.0422 57.2362 59.261 56.5935C59.4846 55.9322 59.6333 55.2481 59.7045 54.5539C59.8009 53.7351 59.7828 52.9068 59.6504 52.0925C59.5512 51.4979 59.3656 50.9204 59.0996 50.378Z" fill="#16183C"/>
<path d="M98.5878 62.7237C98.9941 62.1781 99.3127 61.5734 99.5325 60.9311C99.7565 60.2699 99.9047 59.5857 99.9738 58.8913C100.072 58.0728 100.055 57.2444 99.9219 56.4301C99.8227 55.8355 99.6374 55.2581 99.3714 54.7157C99.1671 54.3042 98.9106 53.9201 98.608 53.5728C98.1577 53.0607 97.6086 52.6427 96.9933 52.3433C95.7261 51.7407 94.277 51.634 92.9359 52.0444C92.3539 52.2325 91.8108 52.5226 91.3327 52.901C90.9713 53.1845 90.6486 53.5131 90.3721 53.8785C89.9648 54.4235 89.6459 55.0282 89.4271 55.6709C89.2035 56.3323 89.0548 57.0164 88.9836 57.7106C88.8872 58.5294 88.9053 59.3576 89.0377 60.172C89.1369 60.7666 89.3225 61.3441 89.5885 61.8865C89.7928 62.298 90.0493 62.682 90.3518 63.0293C90.8007 63.5417 91.3489 63.9598 91.9638 64.2586C92.5352 64.5319 93.1498 64.7053 93.7805 64.7712C94.5347 64.8577 95.2983 64.7848 96.0212 64.5574C96.604 64.3695 97.148 64.0794 97.6269 63.701C97.9883 63.4175 98.3112 63.089 98.5878 62.7237Z" fill="#16183C"/>
<path d="M73.8507 60.6568C65.7061 59.778 61.0639 64.3915 60.6103 68.5948C60.12 73.139 64.6665 74.0388 72.3176 74.8644C79.9687 75.69 84.605 75.781 85.0954 71.2368C85.5101 67.4901 82.0081 61.537 73.8507 60.6568Z" fill="#16183C"/>
<path d="M115.174 109.141C114.745 107.531 114.073 105.994 113.181 104.581C111.681 102.246 109.685 100.262 107.331 98.7685C105.704 97.7221 103.967 96.8544 102.15 96.1811C102.635 95.2039 103.149 94.1525 103.66 93.0107C105.914 88.0378 107.845 82.927 109.442 77.7095C111.372 71.5133 112.717 65.1518 113.459 58.7069C114.078 52.9694 114.11 47.1068 113.193 41.4121C112.536 37.1246 111.239 32.9562 109.346 29.0434C107.873 26.042 105.991 23.2546 103.752 20.7592C100.311 16.9233 95.8629 13.6377 90.3381 11.1291C84.8134 8.62052 78.2132 6.87361 70.3953 6.02745C69.2867 5.90783 68.1543 5.80709 66.9984 5.72526L66.9341 5.71833L66.8674 5.71112C58.3172 5.43459 51.0804 6.50437 45.0177 8.66867C40.765 10.1545 36.8122 12.3726 33.3411 15.2207C30.9688 17.1869 28.8593 19.4442 27.0628 21.9383C24.4922 25.5526 22.4945 29.5354 21.1393 33.7493C19.8156 37.8516 18.9289 42.0805 18.4936 46.3672C17.5132 55.453 18.2601 64.2413 19.2369 70.8022C19.7128 74.0067 20.2463 76.6768 20.6723 78.5838C18.844 79.2093 17.0885 80.026 15.4356 81.02C13.0362 82.4612 10.8983 84.2908 9.11074 86.4327C7.63273 88.2018 6.42827 90.1788 5.53698 92.2992C4.68618 94.3303 4.13476 96.4726 3.89919 98.6603C3.3778 103.649 4.45333 108.677 6.97387 113.034C9.4944 117.391 13.3323 120.856 17.9453 122.94C20.7001 124.207 23.6425 125.025 26.6589 125.363C30.5397 125.776 34.4629 125.334 38.1476 124.07L38.1668 124.108C39.0863 126.024 40.2264 127.829 41.5645 129.486C43.6889 132.118 46.3225 134.304 49.3104 135.915C52.708 137.711 56.4283 138.827 60.2584 139.199L60.793 139.257C65.1202 139.66 69.0277 139.155 72.4179 137.904C74.8695 137.003 77.1398 135.68 79.1239 133.994C80.8559 132.515 82.368 130.8 83.6151 128.901C86.6246 130.536 89.9228 131.581 93.3292 131.98C96.6565 132.345 100.023 131.974 103.184 130.892C105.269 130.186 107.215 129.128 108.934 127.765C110.681 126.379 112.144 124.675 113.244 122.745C114.535 120.477 115.35 117.973 115.64 115.384C115.871 113.293 115.713 111.177 115.174 109.141ZM41.8215 106.696C41.9901 105.058 42.3335 103.443 42.846 101.877C43.1665 100.897 43.5862 99.9527 44.0991 99.0573C44.4068 98.5212 44.7679 98.0169 45.1768 97.552C45.4206 97.2778 45.6895 97.0268 45.9804 96.8022C46.3026 96.5478 46.6691 96.3536 47.0617 96.229C47.4014 96.1266 47.7588 96.0942 48.1119 96.1339C48.4179 96.1697 48.7181 96.2427 49.0061 96.3513C49.453 96.5068 49.8682 96.7409 50.2315 97.0421C50.4428 97.2202 50.6264 97.4282 50.7761 97.6594C51.028 98.0614 51.1979 98.5082 51.2763 98.9746C51.3886 99.6297 51.4041 100.297 51.3225 100.956C51.206 101.929 50.9736 102.885 50.6304 103.803C49.858 105.833 48.7762 107.732 47.4225 109.436C46.2865 110.892 44.9985 112.225 43.5796 113.413C43.0936 113.821 42.5863 114.209 42.0676 114.583C41.619 111.977 41.5362 109.323 41.8215 106.696ZM73.697 100.436C74.0485 100.078 74.4683 99.7916 74.932 99.5941C75.4522 99.4349 75.9988 99.3768 76.5417 99.4229C76.892 99.4627 77.2331 99.5613 77.5502 99.7145C77.8681 99.8717 78.163 100.071 78.4274 100.306C79.0616 100.888 79.5877 101.575 79.9815 102.337C80.8253 103.979 81.3833 105.751 81.6316 107.576C81.9664 109.81 82.0082 112.077 81.7565 114.32C81.5935 115.833 81.305 117.33 80.8939 118.796C79.9904 117.954 79.1379 117.06 78.341 116.119C76.481 113.954 74.9672 111.519 73.8523 108.901C73.3998 107.825 73.0596 106.707 72.837 105.564C72.6582 104.674 72.6092 103.764 72.6917 102.861C72.7316 102.456 72.8183 102.056 72.9501 101.671C73.1059 101.216 73.3574 100.8 73.6878 100.448L73.697 100.436ZM107.387 119.485C106.703 120.676 105.795 121.727 104.713 122.581C103.597 123.463 102.336 124.147 100.984 124.603C98.7582 125.368 96.3863 125.63 94.0425 125.37C92.586 125.207 91.1541 124.873 89.7769 124.374C88.6854 123.979 87.626 123.502 86.6081 122.946C88.3868 118.047 89.0074 112.807 88.4222 107.629C88.2232 105.895 87.8538 104.185 87.3196 102.522C86.9388 101.338 86.4461 100.192 85.8481 99.0989C84.993 97.4938 83.8195 96.0758 82.3979 94.93C81.6702 94.3565 80.8677 93.8829 80.0123 93.5221C79.1319 93.1503 78.2012 92.9094 77.2502 92.8071C75.7337 92.6568 74.203 92.8203 72.755 93.2873L72.6099 93.3308L72.4682 93.3902C71.5394 93.7689 70.668 94.2725 69.8783 94.8867C68.7367 95.7789 67.8072 96.9087 67.1553 98.1964C66.5358 99.4355 66.1481 100.776 66.0109 102.153C65.8575 103.715 65.9352 105.292 66.2416 106.834C66.8416 109.733 67.9204 112.515 69.4349 115.068C70.6449 117.153 72.0581 119.116 73.6542 120.928C75.0001 122.459 76.4696 123.878 78.0478 125.173C77.777 125.587 77.4946 125.986 77.196 126.368C76.3818 127.426 75.445 128.385 74.4047 129.225C72.7859 130.522 70.9193 131.481 68.9161 132.046C66.4733 132.708 63.9254 132.908 61.4059 132.636L60.9664 132.589C56.9776 132.158 53.8235 130.981 51.2699 129.347C49.4189 128.158 47.7926 126.656 46.4652 124.911C45.5874 123.755 44.831 122.515 44.2077 121.208C44.8448 120.813 45.4638 120.401 46.0648 119.972C49.3024 117.647 52.0818 114.754 54.2659 111.436C55.2672 109.916 56.1099 108.298 56.781 106.608C57.4149 105.027 57.8361 103.369 58.0333 101.678C58.1659 100.52 58.1487 99.3495 57.9826 98.1951C57.8546 97.3245 57.6211 96.4722 57.2868 95.6567C56.7664 94.3959 55.9816 93.2583 54.9844 92.3195C53.9286 91.3434 52.6824 90.5913 51.3229 90.1098C50.519 89.8146 49.682 89.6171 48.8305 89.5217C46.9782 89.3199 45.1083 89.6693 43.4597 90.5252C42.1767 91.1974 41.0332 92.1025 40.0884 93.1934C38.6411 94.8876 37.5156 96.8277 36.7663 98.9199C35.9292 101.195 35.3818 103.566 35.1365 105.977C34.7704 109.427 34.9199 112.912 35.5804 116.321C35.6758 116.81 35.7845 117.295 35.9034 117.784C33.1609 118.721 30.2425 119.049 27.3552 118.743C25.0558 118.483 22.8131 117.856 20.7148 116.886C18.6159 115.941 16.7262 114.594 15.1549 112.922C13.5836 111.251 12.362 109.288 11.5607 107.147C10.6286 104.669 10.2871 102.012 10.5628 99.3845C10.7305 97.8342 11.1219 96.3162 11.7251 94.8768C12.3613 93.362 13.2218 91.9497 14.2781 90.6864C15.5922 89.116 17.1623 87.7744 18.9236 86.7167C20.9333 85.5179 23.1285 84.6531 25.4218 84.1567L28.8539 83.3842L27.9162 80.027C27.0191 76.5727 26.3215 73.071 25.8265 69.5391C24.9299 63.3909 24.2857 55.2392 25.1683 47.108C25.6581 42.5689 26.6173 38.0418 28.2298 33.8684C29.4019 30.7612 31.0131 27.8353 33.0155 25.1777C34.543 23.1692 36.3266 21.3649 38.3217 19.8096C41.3959 17.4155 45.1389 15.4719 49.7921 14.1542C54.4453 12.8365 59.9728 12.164 66.5872 12.3809C67.6432 12.4571 68.6734 12.5486 69.6776 12.6552C78.2488 13.5801 84.9185 15.6459 90.0686 18.4461C93.6049 20.3244 96.752 22.8473 99.3438 25.8819C101.102 27.9782 102.565 30.3008 103.692 32.786C105.374 36.4783 106.402 40.5428 106.869 44.8095C107.311 49.1985 107.278 53.6207 106.772 58.0008C105.891 66.1656 103.68 74.2975 101.228 81.1372C100.004 84.5597 98.7231 87.657 97.53 90.2798C96.337 92.9027 95.2296 95.0457 94.3756 96.5262L92.1798 100.346L96.4855 101.405C98.7796 101.933 100.983 102.793 103.025 103.959C104.161 104.619 105.2 105.431 106.113 106.372C107.22 107.506 108.05 108.876 108.541 110.376C108.979 111.769 109.121 113.236 108.955 114.683C108.759 116.372 108.223 118.004 107.379 119.484L107.387 119.485Z" fill="#16183C"/>
</g>
<defs>
<clipPath id="clip0_4996_774">
<rect width="112.895" height="133.496" fill="white" transform="translate(14.5371) rotate(6.15861)"/>
</clipPath>
</defs>
</svg>
