<svg width="120" height="140" viewBox="0 0 120 140" fill="none" xmlns="http://www.w3.org/2000/svg">
<g clip-path="url(#clip0_4987_229)">
<path d="M1.29096 95.3068C1.96889 93.5624 2.9211 91.9368 4.1115 90.4909C6.08953 88.1279 8.62053 86.2871 11.4812 85.131C14.0949 84.0794 16.861 83.4524 19.6738 83.274L19.6003 82.8517C18.4561 75.7985 17.8823 68.665 17.8847 61.5202C17.8847 55.0233 18.3706 48.0446 19.6952 41.147C20.6543 35.9538 22.1923 30.8836 24.2802 26.0309C25.8558 22.4106 27.8607 18.9916 30.2521 15.847C32.0683 13.4683 34.144 11.2984 36.4411 9.37719C40.1106 6.34017 44.3105 4.00458 48.83 2.48777C53.5912 0.863546 58.9769 0 65.0139 0C70.2448 0 75.9696 0.652399 82.2401 2.03299H82.3109L82.3759 2.05194C89.4553 3.90626 95.3729 6.39944 100.27 9.42321C103.72 11.5227 106.861 14.09 109.602 17.0517C113.248 21.0228 116.01 25.7187 117.705 30.8305C119.334 35.7032 119.996 40.768 119.996 45.7571C119.996 51.7478 119.054 57.6681 117.667 63.158C115.583 71.4117 112.491 78.764 109.915 84.0915C108.796 86.4006 107.775 88.3307 106.975 89.7763C108.625 90.9583 110.146 92.3113 111.511 93.8125C113.492 95.9978 115.093 98.4985 116.247 101.211C118.745 107.028 118.874 113.586 116.609 119.497C114.994 123.742 112.264 127.477 108.706 130.31C105.148 133.143 100.892 134.971 96.3828 135.601C94.9378 135.806 93.4801 135.91 92.0205 135.912C87.5674 135.93 83.1754 134.878 79.2163 132.845C77.9973 132.216 76.8253 131.501 75.7091 130.704C75.4648 130.975 75.2178 131.245 74.9627 131.516C72.4923 134.086 69.5522 136.162 66.3006 137.631C62.7207 139.219 58.8422 140.028 54.9241 140.003C52.7159 139.996 50.5138 139.772 48.3497 139.334C44.8969 138.693 41.5946 137.414 38.6127 135.563C36.6293 134.312 34.8458 132.771 33.3221 130.991C31.1888 128.467 29.5839 125.543 28.6017 122.391C28.5637 122.263 28.5283 122.136 28.4903 122.009C26.5068 122.425 24.4857 122.637 22.4588 122.642C19.9855 122.652 17.5242 122.299 15.154 121.595C12.662 120.844 10.3114 119.687 8.19678 118.173C6.31262 116.839 4.67329 115.191 3.35123 113.3C2.00851 111.374 1.04839 109.209 0.522743 106.923C0.178139 105.413 0.0033493 103.869 0.00157928 102.321C-0.0101471 99.9231 0.427147 97.5443 1.29096 95.3068ZM73.8633 118.928C74.0932 119.257 74.332 119.581 74.5799 119.9C75.2338 118.589 75.7918 117.232 76.2494 115.84C77.1521 113.143 77.6281 110.323 77.6607 107.48C77.672 106.202 77.5391 104.926 77.2644 103.677C77.1024 102.948 76.8566 102.241 76.5317 101.568C76.3476 101.183 76.12 100.819 75.8531 100.485C75.5679 100.122 75.2053 99.826 74.7917 99.6191C74.3561 99.4136 73.8779 99.3134 73.3963 99.3267C73.304 99.3267 73.2036 99.3267 73.1004 99.3267C72.769 99.3451 72.4407 99.3986 72.1207 99.4864C71.6986 99.5995 71.3054 99.8007 70.967 100.077C70.7095 100.292 70.4846 100.544 70.2992 100.824C69.9269 101.401 69.6568 102.037 69.501 102.705C69.2818 103.62 69.176 104.558 69.1861 105.499C69.1861 107.691 69.6882 110.342 70.717 113.014C71.5215 115.105 72.5782 117.091 73.8633 118.928ZM47.0794 96.1893C46.8336 95.6862 46.4828 95.2413 46.0506 94.8845C45.7034 94.6572 45.3284 94.4752 44.9348 94.3431C44.6018 94.2341 44.2538 94.1775 43.9034 94.1752C43.4541 94.1832 43.0102 94.275 42.5949 94.4459C42.1112 94.635 41.6549 94.8872 41.2376 95.1958C40.2439 95.9558 39.3789 96.8697 38.6753 97.9028C37.2597 99.9623 36.1853 102.235 35.4937 104.635C34.7183 107.22 34.3028 109.899 34.2586 112.597C35.512 111.965 36.7243 111.255 37.888 110.472C39.3132 109.513 40.6576 108.44 41.908 107.264C43.5415 105.76 44.9415 104.022 46.0614 102.107C46.4874 101.362 46.8312 100.573 47.0873 99.7544C47.2856 99.1316 47.3917 98.4832 47.4022 97.8297C47.4217 97.2637 47.3114 96.7008 47.0794 96.1839V96.1893ZM7.39594 105.347C7.72428 106.759 8.3194 108.096 9.14951 109.286C10.0068 110.515 11.0712 111.587 12.2956 112.453C13.7802 113.518 15.4312 114.33 17.1817 114.857C18.8917 115.362 20.667 115.614 22.4506 115.604C24.0678 115.595 25.6794 115.413 27.2579 115.063C27.2172 114.367 27.1927 113.674 27.1927 112.981C27.1978 109.899 27.5947 106.83 28.3737 103.847C28.9241 101.725 29.6794 99.6607 30.6293 97.6835C31.3006 96.2831 32.0925 94.9435 32.9963 93.6798C34.2617 91.874 35.8478 90.3144 37.6762 89.0779C38.5854 88.4798 39.5692 88.0029 40.6025 87.6594C41.6622 87.3052 42.7721 87.1224 43.8898 87.118C44.9767 87.1178 46.0568 87.2887 47.0902 87.6242C48.1643 87.9762 49.183 88.4774 50.1167 89.1131L50.2498 89.2024L50.372 89.3026C51.6797 90.3476 52.7336 91.6737 53.4555 93.1817C54.1264 94.6232 54.4694 96.1946 54.46 97.7837C54.4438 99.3759 54.1574 100.954 53.613 102.451C53.13 103.794 52.5059 105.082 51.751 106.295C50.3271 108.561 48.6083 110.629 46.6396 112.445C43.426 115.43 39.7386 117.863 35.7272 119.646L35.2087 119.868C35.6144 121.256 36.1792 122.593 36.8918 123.853C38.0761 125.943 39.7105 127.746 41.6774 129.131C43.7513 130.593 46.3627 131.749 49.7151 132.415C51.426 132.764 53.1669 132.946 54.9133 132.956C56.6987 132.963 58.4778 132.747 60.2092 132.312C62.9408 131.613 65.4921 130.343 67.6931 128.584C68.6863 127.795 69.6124 126.925 70.462 125.983C68.0491 123.254 66.0847 120.161 64.642 116.82C63.8433 114.978 63.219 113.065 62.7771 111.108C62.3572 109.274 62.1397 107.401 62.1284 105.52C62.115 103.97 62.2974 102.424 62.6713 100.918C62.952 99.8179 63.3697 98.7566 63.9146 97.7594C64.3307 97.0045 64.8346 96.3013 65.4158 95.6641C66.3147 94.6744 67.4028 93.8737 68.6162 93.309C69.8853 92.7276 71.2527 92.3897 72.6471 92.3128C72.8969 92.2965 73.1439 92.2884 73.391 92.2884C74.3154 92.2856 75.2363 92.4039 76.1298 92.6403C76.8918 92.8439 77.6263 93.1384 78.3176 93.5174C79.4873 94.1685 80.5191 95.0401 81.3553 96.0837C82.5709 97.6349 83.4518 99.4202 83.9423 101.327C84.4718 103.331 84.7311 105.397 84.7131 107.47C84.6786 111.112 84.0667 114.727 82.8999 118.179C82.1134 120.551 81.0874 122.837 79.8379 125.003C80.3509 125.366 80.8776 125.71 81.4205 126.026C82.9596 126.931 84.6103 127.633 86.331 128.113C88.1872 128.627 90.1052 128.884 92.0314 128.877C93.1605 128.875 94.2879 128.793 95.4055 128.633C98.1309 128.256 100.736 127.272 103.027 125.752C105.318 124.233 107.236 122.218 108.639 119.857C110.285 117.116 111.16 113.983 111.171 110.788C111.167 108.442 110.688 106.121 109.763 103.964C108.913 101.978 107.736 100.148 106.28 98.5498C104.616 96.7314 102.665 95.197 100.503 94.0074L97.2786 92.1991L99.241 89.0725C101.93 84.5601 104.28 79.855 106.272 74.9958C108.148 70.5132 109.69 65.8987 110.886 61.1899C112.13 56.1955 112.938 50.9303 112.936 45.7598C112.969 41.9264 112.462 38.1073 111.429 34.4146C110.645 31.6645 109.492 29.0321 108.004 26.5886C105.718 22.8637 102.534 19.4257 98.0847 16.402C93.6356 13.3782 87.9406 10.7957 80.644 8.8791C74.8269 7.60408 69.6341 7.02748 65.0113 7.02748C61.1913 6.99733 57.383 7.45216 53.6782 8.381C50.9333 9.07687 48.2882 10.1175 45.8062 11.4778C41.8351 13.6824 38.3799 16.7046 35.6702 20.3434C33.6019 23.1193 31.8775 26.1342 30.5344 29.3227C28.4388 34.1953 27.03 39.6094 26.156 45.1182C25.3238 50.5449 24.9162 56.0278 24.9371 61.5175C24.9379 66.3501 25.2097 71.1789 25.7514 75.9812C25.993 78.0873 26.2671 80.0093 26.5467 81.6876C26.8263 83.366 27.1195 84.8035 27.3828 85.9323L28.4469 90.4666L23.7808 90.2473C23.2677 90.223 22.7681 90.2121 22.2822 90.2121C19.2773 90.2121 16.8533 90.6507 14.8934 91.3518C13.5845 91.8077 12.3566 92.4683 11.2559 93.309C9.87466 94.3703 8.77976 95.7572 8.06927 97.3452C7.38215 98.9043 7.03326 100.591 7.04576 102.294C7.04796 103.321 7.16542 104.346 7.39594 105.347Z" fill="#16183C"/>
<path d="M59.0626 49.4306C66.9944 50.9736 71.6714 52.3217 70.7349 57.0671C69.9722 60.9707 64.5975 65.911 56.1527 64.2679C47.7079 62.6247 44.4939 56.5203 45.3544 52.1295C46.2909 47.3841 51.1308 47.8876 59.0626 49.4306Z" fill="#16183C"/>
<path d="M76.2747 43.6998C76.56 43.1301 76.9257 42.6041 77.3605 42.1378C77.6939 41.7849 78.0715 41.4765 78.4842 41.2201C79.0945 40.8418 79.7749 40.5896 80.4848 40.4784C81.1438 40.3783 81.815 40.3929 82.469 40.5217C83.2489 40.6725 83.9886 40.9841 84.6406 41.4367C85.1658 41.8043 85.621 42.2627 85.9843 42.7902C86.2571 43.1903 86.4778 43.6233 86.6412 44.0788C86.8793 44.7555 87.0104 45.4652 87.0296 46.1821C87.0467 46.9207 86.981 47.6589 86.8339 48.383C86.6777 49.2402 86.4037 50.0719 86.0196 50.8545C85.735 51.4246 85.3693 51.9507 84.9338 52.4164C84.6006 52.7685 84.2239 53.0769 83.8127 53.3341C83.2028 53.7128 82.5222 53.9642 81.8121 54.0732C80.3528 54.2921 78.8646 53.9506 77.6481 53.1176C77.1235 52.7491 76.6685 52.2909 76.3044 51.764C76.0316 51.364 75.8109 50.931 75.6475 50.4755C75.4089 49.7988 75.278 49.0891 75.2594 48.3721C75.2411 47.6335 75.3066 46.8952 75.4548 46.1713C75.6124 45.3137 75.8884 44.482 76.2747 43.6998Z" fill="#16183C"/>
<path d="M34.5201 35.5787C34.8053 35.0081 35.1709 34.4812 35.6059 34.014C35.9378 33.6614 36.3147 33.3538 36.727 33.099C37.3367 32.7196 38.0173 32.4672 38.7276 32.3573C39.3866 32.2572 40.0581 32.2718 40.712 32.4006C41.4921 32.5508 42.2319 32.8625 42.8836 33.3156C43.4089 33.6832 43.8637 34.1416 44.2271 34.6691C44.4998 35.0692 44.7205 35.5022 44.884 35.9577C45.1221 36.6344 45.2532 37.3441 45.2723 38.061C45.2908 38.7996 45.2251 39.538 45.0767 40.2619C44.9205 41.1191 44.6465 41.9508 44.2624 42.7334C43.9778 43.3035 43.6121 43.8296 43.1766 44.2954C42.844 44.648 42.4672 44.9565 42.0555 45.213C41.445 45.5905 40.7647 45.8419 40.0549 45.9521C38.5956 46.171 37.1074 45.8295 35.8909 44.9965C35.3663 44.628 34.9113 44.1698 34.5471 43.6429C34.2744 43.2429 34.0537 42.8099 33.8903 42.3544C33.6517 41.6777 33.5208 40.9681 33.5022 40.251C33.4838 39.5124 33.5493 38.7741 33.6975 38.0502C33.8556 37.1924 34.1325 36.3606 34.5201 35.5787Z" fill="#16183C"/>
</g>
<defs>
<clipPath id="clip0_4987_229">
<rect width="120" height="140" fill="white" transform="matrix(-1 0 0 1 120 0)"/>
</clipPath>
</defs>
</svg>
