<svg width="120" height="140" viewBox="0 0 120 140" fill="none" xmlns="http://www.w3.org/2000/svg">
<path d="M111.511 93.8288C110.146 92.3267 108.626 90.9728 106.975 89.7898C109.058 86.0123 110.937 82.1267 112.605 78.1496C114.663 73.291 116.355 68.2863 117.668 63.177C119.055 57.6735 119.997 51.7668 119.997 45.7761C120.03 41.2843 119.431 36.81 118.216 32.4845C117.257 29.1286 115.848 25.9171 114.028 22.9368C111.224 18.3538 107.285 14.1443 102.059 10.6008C96.834 7.05728 90.3409 4.15803 82.3765 2.0709L82.3087 2.05466L82.2408 2.03842C75.9703 0.65783 70.2454 0.00814043 65.0146 0.00814043C60.5978 -0.0259107 56.1946 0.5017 51.9117 1.57822C48.5933 2.42224 45.3955 3.68202 42.3946 5.32748C37.5579 8.01145 33.3473 11.6883 30.0409 16.115C27.6294 19.341 25.6195 22.847 24.0554 26.5561C21.6721 32.1136 20.1411 38.0637 19.1938 44.0192C18.303 49.8093 17.8665 55.6598 17.8881 61.5175C17.8915 66.6154 18.1815 71.709 18.7567 76.7744C19.0092 79.005 19.2996 81.0434 19.6037 82.849C19.6281 82.9925 19.6525 83.1197 19.677 83.2713C17.2369 83.4329 14.8299 83.9228 12.5215 84.7277C10.5104 85.4364 8.62485 86.4588 6.93508 87.7569C4.6438 89.5264 2.82566 91.8324 1.6418 94.4703C0.550632 96.9369 -0.00444251 99.6059 0.0130984 102.302C0.0148739 103.85 0.189676 105.394 0.534278 106.904C1.05992 109.19 2.02008 111.355 3.3628 113.282C4.68316 115.178 6.32242 116.833 8.20818 118.173C10.3241 119.686 12.6756 120.841 15.1682 121.592C17.5396 122.295 20.0016 122.648 22.4756 122.64C24.5015 122.632 26.5214 122.42 28.5045 122.006C29.0606 123.867 29.8255 125.658 30.7847 127.347C32.48 130.332 34.8159 132.907 37.6252 134.886C40.565 136.965 44.1563 138.498 48.3638 139.331C50.5283 139.767 52.7303 139.99 54.9383 139.997C57.3125 140.005 59.6781 139.714 61.9798 139.134C65.6744 138.191 69.1257 136.476 72.1049 134.101C73.4033 133.071 74.6136 131.935 75.7233 130.704C76.411 131.191 77.124 131.652 77.8623 132.087C79.9277 133.3 82.1423 134.24 84.4504 134.884C86.9206 135.569 89.4734 135.913 92.0374 135.907C93.4971 135.906 94.9548 135.802 96.3997 135.596C100.17 135.07 103.773 133.705 106.943 131.602C110.113 129.5 112.768 126.713 114.712 123.449C117.008 119.62 118.227 115.245 118.241 110.783C118.236 107.491 117.566 104.233 116.27 101.205C115.107 98.4991 113.499 96.0058 111.511 93.8288V93.8288ZM46.0429 94.8791C46.4741 95.2352 46.824 95.6791 47.069 96.1812C47.3008 96.6909 47.4158 97.2458 47.4056 97.8054C47.3871 98.6017 47.2358 99.3895 46.9577 100.136C46.6397 101.011 46.2303 101.851 45.7362 102.64C44.6405 104.37 43.3207 105.948 41.811 107.334C39.5544 109.427 37.0119 111.191 34.2593 112.572C34.2986 110.231 34.6166 107.903 35.2066 105.637C35.6418 103.959 36.2381 102.328 36.9873 100.764C37.4808 99.7309 38.0639 98.7427 38.73 97.8108C39.4885 96.7055 40.4412 95.7462 41.5423 94.9793C41.9334 94.7191 42.3568 94.5107 42.8018 94.3593C43.1519 94.2422 43.5183 94.181 43.8876 94.178C44.2382 94.1789 44.5864 94.2356 44.9191 94.3458C45.3148 94.4754 45.6925 94.6546 46.0429 94.8791V94.8791ZM76.1956 115.962C75.7446 117.31 75.2004 118.625 74.5669 119.898C72.9278 117.765 71.6091 115.406 70.6526 112.894C69.7255 110.537 69.2237 108.036 69.1705 105.504C69.1606 104.551 69.2701 103.599 69.4962 102.673C69.6254 102.147 69.8215 101.641 70.0798 101.165C70.2298 100.889 70.412 100.632 70.6227 100.399C70.8934 100.096 71.2232 99.8522 71.5918 99.6814C72.0628 99.4717 72.5694 99.3532 73.0848 99.3322C73.1879 99.3322 73.2884 99.3322 73.3807 99.3322C73.6874 99.329 73.9931 99.3664 74.29 99.4432C74.5017 99.5 74.7058 99.5818 74.8981 99.6868C75.2688 99.8977 75.5944 100.179 75.8563 100.515C76.4592 101.313 76.8916 102.226 77.1267 103.198C77.4872 104.595 77.6615 106.033 77.6451 107.475C77.6134 110.362 77.127 113.225 76.2037 115.962H76.1956ZM110.005 117.001C108.84 120.07 106.868 122.771 104.297 124.819C101.726 126.867 98.649 128.187 95.3898 128.641C94.2722 128.801 93.1447 128.881 92.0157 128.882C90.2981 128.886 88.5864 128.683 86.9179 128.276C84.3704 127.64 81.9665 126.53 79.833 125.003C81.1154 122.785 82.1634 120.44 82.9601 118.005C84.0927 114.604 84.6862 111.048 84.7191 107.464C84.7312 105.651 84.5363 103.843 84.1382 102.074C83.8539 100.814 83.4249 99.5905 82.8597 98.428C82.4364 97.5681 81.9164 96.7589 81.3097 96.016C80.3623 94.8347 79.1572 93.8844 77.786 93.2375C76.4148 92.5906 74.9137 92.2642 73.397 92.2831C73.1499 92.2831 72.9029 92.283 72.6532 92.3074C71.0037 92.3994 69.3965 92.8621 67.9517 93.6609C66.9233 94.2397 66.0045 94.9937 65.2372 95.8888C64.1291 97.2002 63.3122 98.7308 62.8403 100.38C62.3569 102.051 62.1201 103.784 62.1372 105.523C62.1894 108.96 62.8663 112.359 64.1351 115.555C65.1453 118.181 66.4726 120.673 68.0874 122.978C68.8264 124.031 69.6249 125.04 70.4789 126.002C70.2889 126.213 70.1016 126.424 69.9034 126.627C68.0573 128.561 65.8557 130.124 63.4184 131.229C60.7488 132.411 57.8564 133.009 54.9356 132.983C53.1892 132.974 51.448 132.793 49.7373 132.442C47.1404 131.969 44.6547 131.017 42.4082 129.635C41.0156 128.754 39.7645 127.668 38.6975 126.413C37.1731 124.603 36.0285 122.506 35.3315 120.247C35.2935 120.125 35.2582 119.998 35.2229 119.873C37.5432 118.881 39.7637 117.671 41.8544 116.259C43.5984 115.086 45.2442 113.775 46.7758 112.337C48.9288 110.343 50.7689 108.038 52.2347 105.499C52.9125 104.312 53.4587 103.055 53.8634 101.75C54.2617 100.468 54.4693 99.1359 54.4796 97.7946C54.4883 96.2056 54.1454 94.6343 53.4752 93.1926C52.751 91.6882 51.695 90.3667 50.3861 89.327L50.264 89.2241L50.1282 89.1348C49.1951 88.5005 48.1771 88.0002 47.1043 87.6486C46.0706 87.3137 44.9908 87.142 43.9039 87.1397C42.5826 87.1444 41.2736 87.394 40.0439 87.876C38.9953 88.2871 38.0052 88.8331 37.0986 89.5002C35.4883 90.7023 34.0831 92.1557 32.9373 93.8044C31.075 96.4893 29.6597 99.4565 28.7461 102.591C27.7285 105.969 27.2091 109.476 27.2043 113.003C27.2043 113.696 27.2233 114.391 27.2667 115.084C25.6888 115.434 24.0783 115.615 22.462 115.626C20.6784 115.635 18.9031 115.382 17.1932 114.876C15.4422 114.35 13.7911 113.538 12.3071 112.472C11.0835 111.606 10.0191 110.535 9.16097 109.308C8.33033 108.117 7.73516 106.779 7.4074 105.366C7.1789 104.365 7.06328 103.342 7.06267 102.315C7.05709 100.8 7.33321 99.2964 7.87702 97.8812C8.28413 96.8317 8.85688 95.8538 9.57358 94.9847C10.8182 93.5065 12.4113 92.3596 14.2099 91.6469C16.2702 90.7914 18.9278 90.2365 22.3073 90.2338C22.7932 90.2338 23.2927 90.2338 23.8084 90.269L28.4692 90.4856L27.4079 85.954C27.1364 84.8279 26.865 83.3904 26.5718 81.712C25.4895 75.0419 24.9448 68.2961 24.9431 61.5392C24.9431 55.405 25.4073 48.835 26.6261 42.4924C27.4862 37.8167 28.8675 33.2514 30.744 28.8814C32.0873 25.7772 33.7997 22.8453 35.8445 20.1485C37.3449 18.1834 39.0612 16.3919 40.9614 14.8075C43.9655 12.32 47.4059 10.4091 51.1082 9.17148C55.0632 7.81796 59.6561 7.05998 65.0173 7.05998C69.6319 7.05998 74.8356 7.63388 80.6528 8.90889C87.1323 10.6143 92.3632 12.8503 96.5598 15.441C99.4578 17.1929 102.098 19.3375 104.405 21.8134C107.386 25.0563 109.641 28.8939 111.023 33.0719C112.38 37.1027 112.95 41.3934 112.95 45.768C112.95 51.0196 112.114 56.3769 110.833 61.4526C108.914 69.0648 106.001 76.0246 103.569 81.0434C102.355 83.5555 101.264 85.5831 100.48 86.9718C100.089 87.6676 99.7765 88.2008 99.5648 88.5582C99.4562 88.7368 99.3775 88.8695 99.3232 88.9561L99.2662 89.0481V89.0698L97.3036 92.1937L100.528 94.002C102.686 95.1924 104.634 96.7258 106.297 98.5417C107.753 100.14 108.93 101.97 109.779 103.956C111.564 108.104 111.657 112.783 110.037 116.998L110.005 117.001Z" fill="#16183C"/>
<path d="M66.7281 49.8934C66.4491 51.7077 65.9307 53.4772 65.1863 55.1559C64.7649 56.0939 64.2239 56.9738 63.5766 57.7736C63.1933 58.246 62.756 58.6721 62.2736 59.0432C61.6891 59.4963 61.0188 59.8269 60.3029 60.0151C59.5712 60.1953 58.8084 60.2103 58.0702 60.059C57.3319 59.9077 56.6368 59.594 56.0357 59.1407C55.5039 58.7264 55.0499 58.2214 54.6947 57.6491C53.9836 56.4591 53.5331 55.1324 53.3728 53.7564C53.1234 51.7443 53.1819 49.7061 53.5465 47.7116L47.504 46.71C47.0896 49.0532 46.99 51.4411 47.2081 53.8105C47.3545 55.3576 47.7022 56.8791 48.2423 58.3367C48.6193 59.3509 49.114 60.3175 49.7163 61.217C50.5809 62.5082 51.6969 63.613 52.9982 64.4654C54.4096 65.3782 56.0093 65.9618 57.6782 66.1727C59.3471 66.3836 61.0422 66.2164 62.6374 65.6836C63.9541 65.2337 65.1809 64.5556 66.2612 63.6804C68.0003 62.2427 69.4116 60.4513 70.4008 58.426C71.5717 56.048 72.3718 53.5057 72.7733 50.8869L66.7281 49.888V49.8934Z" fill="#16183C"/>
<path d="M81.2725 45.3159L88.6586 42.4492L86.4355 36.7535L74.2392 41.4882L73.376 46.6721L83.3871 55.0802L87.334 50.4051L81.2725 45.3159Z" fill="#16183C"/>
<path d="M49.1598 37.3356L39.1514 28.9275L35.2046 33.6025L41.266 38.6945L33.8799 41.5585L36.1003 47.2542L48.2993 42.5195L49.1598 37.3356Z" fill="#16183C"/>
</svg>
