<svg width="120" height="140" viewBox="0 0 120 140" fill="none" xmlns="http://www.w3.org/2000/svg">
<g clip-path="url(#clip0_4987_93)">
<path d="M118.709 95.3068C118.031 93.5624 117.079 91.9368 115.888 90.4909C113.91 88.1279 111.379 86.2871 108.519 85.131C105.905 84.0794 103.139 83.4524 100.326 83.274L100.4 82.8517C101.544 75.7985 102.118 68.665 102.115 61.5202C102.115 55.0233 101.629 48.0446 100.305 41.147C99.3457 35.9538 97.8077 30.8836 95.7198 26.0309C94.1442 22.4106 92.1393 18.9916 89.7479 15.847C87.9317 13.4683 85.856 11.2984 83.5589 9.37719C79.8894 6.34017 75.6895 4.00458 71.17 2.48777C66.4088 0.863546 61.0231 0 54.9861 0C49.7552 0 44.0304 0.652399 37.7599 2.03299H37.6891L37.6241 2.05194C30.5447 3.90626 24.6271 6.39944 19.7302 9.42321C16.2801 11.5227 13.1392 14.09 10.3977 17.0517C6.75196 21.0228 3.99034 25.7187 2.2948 30.8305C0.666096 35.7032 0.00390625 40.768 0.00390625 45.7571C0.00390625 51.7478 0.945595 57.6681 2.33271 63.158C4.41744 71.4117 7.50941 78.764 10.0855 84.0915C11.2038 86.4006 12.2245 88.3307 13.0253 89.7763C11.3748 90.9583 9.85434 92.3113 8.48938 93.8125C6.50766 95.9978 4.90656 98.4985 3.75252 101.211C1.25549 107.028 1.12599 113.586 3.39147 119.497C5.00632 123.742 7.73558 127.477 11.2937 130.31C14.8519 133.143 19.1081 134.971 23.6172 135.601C25.0622 135.806 26.5199 135.91 27.9795 135.912C32.4326 135.93 36.8246 134.878 40.7837 132.845C42.0027 132.216 43.1747 131.501 44.2909 130.704C44.5352 130.975 44.7822 131.245 45.0373 131.516C47.5077 134.086 50.4478 136.162 53.6994 137.631C57.2793 139.219 61.1578 140.028 65.0759 140.003C67.2841 139.996 69.4862 139.772 71.6503 139.334C75.1031 138.693 78.4054 137.414 81.3873 135.563C83.3707 134.312 85.1542 132.771 86.6779 130.991C88.8112 128.467 90.4161 125.543 91.3983 122.391C91.4363 122.263 91.4717 122.136 91.5097 122.009C93.4932 122.425 95.5143 122.637 97.5412 122.642C100.014 122.652 102.476 122.299 104.846 121.595C107.338 120.844 109.689 119.687 111.803 118.173C113.687 116.839 115.327 115.191 116.649 113.3C117.991 111.374 118.952 109.209 119.477 106.923C119.822 105.413 119.997 103.869 119.998 102.321C120.01 99.9231 119.573 97.5443 118.709 95.3068ZM46.1367 118.928C45.9068 119.257 45.668 119.581 45.4201 119.9C44.7662 118.589 44.2082 117.232 43.7506 115.84C42.8479 113.143 42.3719 110.323 42.3393 107.48C42.328 106.202 42.4609 104.926 42.7356 103.677C42.8976 102.948 43.1434 102.241 43.4683 101.568C43.6524 101.183 43.88 100.819 44.1469 100.485C44.4321 100.122 44.7947 99.826 45.2083 99.6191C45.6439 99.4136 46.1221 99.3134 46.6037 99.3267C46.696 99.3267 46.7964 99.3267 46.8996 99.3267C47.231 99.3451 47.5593 99.3986 47.8793 99.4864C48.3014 99.5995 48.6946 99.8007 49.033 100.077C49.2905 100.292 49.5154 100.544 49.7008 100.824C50.0731 101.401 50.3432 102.037 50.499 102.705C50.7182 103.62 50.824 104.558 50.8139 105.499C50.8139 107.691 50.3118 110.342 49.283 113.014C48.4785 115.105 47.4218 117.091 46.1367 118.928ZM72.9206 96.1893C73.1664 95.6862 73.5172 95.2413 73.9494 94.8845C74.2966 94.6572 74.6716 94.4752 75.0652 94.3431C75.3982 94.2341 75.7462 94.1775 76.0966 94.1752C76.5459 94.1832 76.9898 94.275 77.4051 94.4459C77.8888 94.635 78.3451 94.8872 78.7624 95.1958C79.7561 95.9558 80.6211 96.8697 81.3247 97.9028C82.7403 99.9623 83.8147 102.235 84.5063 104.635C85.2817 107.22 85.6972 109.899 85.7414 112.597C84.488 111.965 83.2757 111.255 82.112 110.472C80.6868 109.513 79.3424 108.44 78.092 107.264C76.4585 105.76 75.0585 104.022 73.9386 102.107C73.5126 101.362 73.1688 100.573 72.9127 99.7544C72.7144 99.1316 72.6083 98.4832 72.5978 97.8297C72.5783 97.2637 72.6886 96.7008 72.9206 96.1839V96.1893ZM112.604 105.347C112.276 106.759 111.681 108.096 110.85 109.286C109.993 110.515 108.929 111.587 107.704 112.453C106.22 113.518 104.569 114.33 102.818 114.857C101.108 115.362 99.333 115.614 97.5494 115.604C95.9322 115.595 94.3206 115.413 92.7421 115.063C92.7828 114.367 92.8073 113.674 92.8073 112.981C92.8022 109.899 92.4053 106.83 91.6263 103.847C91.0759 101.725 90.3206 99.6607 89.3707 97.6835C88.6994 96.2831 87.9075 94.9435 87.0037 93.6798C85.7383 91.874 84.1522 90.3144 82.3238 89.0779C81.4146 88.4798 80.4308 88.0029 79.3975 87.6594C78.3378 87.3052 77.2279 87.1224 76.1102 87.118C75.0233 87.1178 73.9432 87.2887 72.9098 87.6242C71.8357 87.9762 70.817 88.4774 69.8833 89.1131L69.7502 89.2024L69.628 89.3026C68.3203 90.3476 67.2664 91.6737 66.5445 93.1817C65.8736 94.6232 65.5306 96.1946 65.54 97.7837C65.5562 99.3759 65.8426 100.954 66.387 102.451C66.87 103.794 67.4941 105.082 68.249 106.295C69.6729 108.561 71.3917 110.629 73.3604 112.445C76.574 115.43 80.2614 117.863 84.2728 119.646L84.7913 119.868C84.3856 121.256 83.8208 122.593 83.1082 123.853C81.9239 125.943 80.2895 127.746 78.3226 129.131C76.2487 130.593 73.6373 131.749 70.2849 132.415C68.574 132.764 66.8331 132.946 65.0867 132.956C63.3013 132.963 61.5222 132.747 59.7908 132.312C57.0592 131.613 54.5079 130.343 52.3069 128.584C51.3137 127.795 50.3876 126.925 49.538 125.983C51.9509 123.254 53.9153 120.161 55.358 116.82C56.1567 114.978 56.781 113.065 57.2229 111.108C57.6428 109.274 57.8603 107.401 57.8716 105.52C57.885 103.97 57.7026 102.424 57.3287 100.918C57.048 99.8179 56.6303 98.7566 56.0854 97.7594C55.6693 97.0045 55.1654 96.3013 54.5842 95.6641C53.6853 94.6744 52.5972 93.8737 51.3838 93.309C50.1147 92.7276 48.7473 92.3897 47.3529 92.3128C47.1031 92.2965 46.8561 92.2884 46.609 92.2884C45.6846 92.2856 44.7637 92.4039 43.8702 92.6403C43.1082 92.8439 42.3737 93.1384 41.6824 93.5174C40.5127 94.1685 39.4809 95.0401 38.6447 96.0837C37.4291 97.6349 36.5482 99.4202 36.0577 101.327C35.5282 103.331 35.2689 105.397 35.2869 107.47C35.3214 111.112 35.9333 114.727 37.1001 118.179C37.8866 120.551 38.9126 122.837 40.1621 125.003C39.6491 125.366 39.1224 125.71 38.5795 126.026C37.0404 126.931 35.3897 127.633 33.669 128.113C31.8128 128.627 29.8948 128.884 27.9686 128.877C26.8395 128.875 25.7121 128.793 24.5945 128.633C21.8691 128.256 19.2638 127.272 16.9727 125.752C14.6816 124.233 12.7637 122.218 11.3613 119.857C9.71507 117.116 8.84014 113.983 8.82869 110.788C8.83266 108.442 9.3117 106.121 10.2374 103.964C11.0871 101.978 12.2643 100.148 13.7201 98.5498C15.3841 96.7314 17.3354 95.197 19.4966 94.0074L22.7214 92.1991L20.759 89.0725C18.0696 84.5601 15.7195 79.855 13.7283 74.9958C11.852 70.5132 10.3096 65.8987 9.11366 61.1899C7.87042 56.1955 7.06155 50.9303 7.06426 45.7598C7.03113 41.9264 7.53822 38.1073 8.57076 34.4146C9.35539 31.6645 10.5077 29.0321 11.9965 26.5886C14.2821 22.8637 17.4662 19.4257 21.9153 16.402C26.3644 13.3782 32.0594 10.7957 39.356 8.8791C45.1731 7.60408 50.3659 7.02748 54.9887 7.02748C58.8087 6.99733 62.617 7.45216 66.3218 8.381C69.0667 9.07687 71.7118 10.1175 74.1938 11.4778C78.1649 13.6824 81.6201 16.7046 84.3298 20.3434C86.3981 23.1193 88.1225 26.1342 89.4656 29.3227C91.5612 34.1953 92.97 39.6094 93.844 45.1182C94.6762 50.5449 95.0838 56.0278 95.0629 61.5175C95.0621 66.3501 94.7903 71.1789 94.2486 75.9812C94.007 78.0873 93.7329 80.0093 93.4533 81.6876C93.1737 83.366 92.8805 84.8035 92.6172 85.9323L91.5531 90.4666L96.2192 90.2473C96.7323 90.223 97.2319 90.2121 97.7178 90.2121C100.723 90.2121 103.147 90.6507 105.107 91.3518C106.415 91.8077 107.643 92.4683 108.744 93.309C110.125 94.3703 111.22 95.7572 111.931 97.3452C112.618 98.9043 112.967 100.591 112.954 102.294C112.952 103.321 112.835 104.346 112.604 105.347Z" fill="#16183C"/>
<path d="M60.9374 49.4306C53.0056 50.9736 48.3286 52.3217 49.2651 57.0671C50.0278 60.9707 55.4025 65.911 63.8473 64.2679C72.2921 62.6247 75.5061 56.5203 74.6456 52.1295C73.7091 47.3841 68.8692 47.8876 60.9374 49.4306Z" fill="#16183C"/>
<path d="M43.7253 43.6998C43.44 43.1301 43.0743 42.6041 42.6395 42.1378C42.3061 41.7849 41.9285 41.4765 41.5158 41.2201C40.9055 40.8418 40.2251 40.5896 39.5152 40.4784C38.8562 40.3783 38.185 40.3929 37.531 40.5217C36.7511 40.6725 36.0114 40.9841 35.3594 41.4367C34.8342 41.8043 34.379 42.2627 34.0157 42.7902C33.7429 43.1903 33.5222 43.6233 33.3588 44.0788C33.1207 44.7555 32.9896 45.4652 32.9704 46.1821C32.9533 46.9207 33.019 47.6589 33.1661 48.383C33.3223 49.2402 33.5963 50.0719 33.9804 50.8545C34.265 51.4246 34.6307 51.9507 35.0662 52.4164C35.3994 52.7685 35.7761 53.0769 36.1873 53.3341C36.7972 53.7128 37.4778 53.9642 38.1879 54.0732C39.6472 54.2921 41.1354 53.9506 42.3519 53.1176C42.8765 52.7491 43.3315 52.2909 43.6956 51.764C43.9684 51.364 44.1891 50.931 44.3525 50.4755C44.5911 49.7988 44.722 49.0891 44.7406 48.3721C44.7589 47.6335 44.6934 46.8952 44.5452 46.1713C44.3876 45.3137 44.1116 44.482 43.7253 43.6998Z" fill="#16183C"/>
<path d="M85.4799 35.5787C85.1947 35.0081 84.8291 34.4812 84.3941 34.014C84.0622 33.6614 83.6853 33.3538 83.273 33.099C82.6633 32.7196 81.9827 32.4672 81.2724 32.3573C80.6134 32.2572 79.9419 32.2718 79.288 32.4006C78.5079 32.5508 77.7681 32.8625 77.1164 33.3156C76.5911 33.6832 76.1363 34.1416 75.7729 34.6691C75.5002 35.0692 75.2795 35.5022 75.116 35.9577C74.8779 36.6344 74.7468 37.3441 74.7277 38.061C74.7092 38.7996 74.7749 39.538 74.9233 40.2619C75.0795 41.1191 75.3535 41.9508 75.7376 42.7334C76.0222 43.3035 76.3879 43.8296 76.8234 44.2954C77.156 44.648 77.5328 44.9565 77.9445 45.213C78.555 45.5905 79.2353 45.8419 79.9451 45.9521C81.4044 46.171 82.8926 45.8295 84.1091 44.9965C84.6337 44.628 85.0887 44.1698 85.4529 43.6429C85.7256 43.2429 85.9463 42.8099 86.1097 42.3544C86.3483 41.6777 86.4792 40.9681 86.4978 40.251C86.5162 39.5124 86.4507 38.7741 86.3025 38.0502C86.1444 37.1924 85.8675 36.3606 85.4799 35.5787Z" fill="#16183C"/>
</g>
<defs>
<clipPath id="clip0_4987_93">
<rect width="120" height="140" fill="white"/>
</clipPath>
</defs>
</svg>
