<svg width="709" height="251" viewBox="0 0 709 251" fill="none" xmlns="http://www.w3.org/2000/svg">
<circle cx="125.192" cy="125.192" r="124.41" transform="rotate(-180 125.192 125.192)" stroke="url(#paint0_linear_5764_2)" stroke-width="1.5649"/>
<circle cx="584.019" cy="124.981" r="124.198" transform="rotate(-180 584.019 124.981)" stroke="url(#paint1_linear_5764_2)" stroke-width="1.5649"/>
<circle cx="354.712" cy="125.192" r="124.41" transform="rotate(-180 354.712 125.192)" stroke="url(#paint2_linear_5764_2)" stroke-width="1.5649"/>
<path d="M289.423 118.456C289.423 121.312 291.703 122.416 293.983 122.944L296.167 123.424C298.615 123.952 300.679 124.936 300.679 127.072C300.679 129.664 297.751 130.36 295.855 130.36C293.023 130.36 291.079 129.112 290.479 126.352H288.799C289.183 129.472 291.583 131.896 295.927 131.896C299.311 131.896 302.359 130.144 302.359 126.808C302.359 123.496 299.023 122.488 296.503 121.912L294.439 121.456C292.495 121.024 291.079 120.136 291.079 118.384C291.079 116.104 293.551 115.408 295.303 115.408C297.943 115.408 299.671 116.512 300.271 118.528H301.951C301.327 115.576 298.879 113.872 295.471 113.872C292.663 113.872 289.423 115.24 289.423 118.456ZM307.552 129.232L304.696 118.672H303.04L306.784 131.584H308.152L311.44 120.736L314.824 131.584H316.216L319.96 118.672H318.304L315.544 129.256L312.232 118.672H310.744L307.552 129.232ZM321.876 118.672V131.584H323.364V118.672H321.876ZM321.876 114.184V116.56H323.364V114.184H321.876ZM327.562 118.672H325.426V119.968H327.562V128.512C327.562 131.056 328.09 131.584 330.394 131.584H331.618V130.24H330.85C329.122 130.24 329.074 129.904 329.074 128.224V119.968H331.618V118.672H329.074V115.768H327.562V118.672ZM339.101 118.456C335.333 118.456 333.173 121.168 333.173 125.176C333.173 129.16 335.309 131.896 338.981 131.896C341.837 131.896 343.997 130.168 344.525 127.504H342.941C342.581 129.112 341.189 130.528 338.981 130.528C336.725 130.528 334.757 128.824 334.757 125.152C334.757 121.6 336.725 119.824 338.957 119.824C340.829 119.824 342.365 120.88 342.845 122.824H344.405C344.021 120.496 342.029 118.456 339.101 118.456ZM348.419 114.184H346.931V131.584H348.419V124.408C348.419 121.672 350.099 119.8 352.331 119.8C354.947 119.8 355.571 121.432 355.571 123.856V131.584H357.059V123.448C357.059 120.28 355.763 118.456 352.715 118.456C350.315 118.456 349.043 119.632 348.419 120.856V114.184ZM365.355 131.896C368.187 131.896 370.323 130.384 370.947 127.72H369.387C368.883 129.496 367.467 130.528 365.451 130.528C362.811 130.528 360.843 128.68 360.795 125.56H371.067C371.259 121.528 368.955 118.456 365.307 118.456C361.851 118.456 359.259 121 359.259 125.176C359.259 129.184 361.563 131.896 365.355 131.896ZM365.283 119.8C367.875 119.8 369.435 122.008 369.435 124.192H360.843C361.155 121.336 362.883 119.8 365.283 119.8ZM382.599 125.176C382.599 128.992 380.391 130.552 378.447 130.552C376.047 130.552 374.343 128.608 374.343 125.176C374.343 121.744 376.047 119.8 378.447 119.8C380.391 119.8 382.599 121.36 382.599 125.176ZM372.735 125.176C372.735 129.472 375.159 131.896 378.135 131.896C380.031 131.896 381.591 131.008 382.503 129.472V131.584H383.991V114.184H382.503V120.904C381.591 119.344 380.031 118.456 378.135 118.456C375.159 118.456 372.735 120.904 372.735 125.176ZM393.547 125.848V124.168H386.827V125.848H393.547ZM397.429 125.176C397.429 121.48 399.205 119.824 401.677 119.824C404.149 119.824 405.949 121.48 405.949 125.176C405.949 128.872 404.149 130.528 401.677 130.528C399.205 130.528 397.429 128.872 397.429 125.176ZM395.845 125.176C395.845 129.88 398.581 131.896 401.677 131.896C404.773 131.896 407.533 129.88 407.533 125.176C407.533 120.472 404.773 118.456 401.677 118.456C398.581 118.456 395.845 120.472 395.845 125.176ZM411.607 118.672H410.119V131.584H411.607V124.408C411.607 121.672 413.287 119.8 415.519 119.8C418.135 119.8 418.759 121.432 418.759 123.856V131.584H420.247V123.448C420.247 120.28 418.951 118.456 415.903 118.456C413.503 118.456 412.231 119.632 411.607 120.856V118.672Z" fill="white"/>
<path d="M91.8031 114.184H90.1951V131.584H91.8031V114.184ZM97.1613 118.672H95.6733V131.584H97.1613V124.408C97.1613 121.672 98.8413 119.8 101.073 119.8C103.689 119.8 104.313 121.432 104.313 123.856V131.584H105.801V123.448C105.801 120.28 104.505 118.456 101.457 118.456C99.0573 118.456 97.7853 119.632 97.1613 120.856V118.672ZM108.819 118.672H107.139L112.083 131.584H113.523L118.323 118.672H116.715L112.827 129.52L108.819 118.672ZM120.119 118.672V131.584H121.607V118.672H120.119ZM120.119 114.184V116.56H121.607V114.184H120.119ZM125.805 118.672H123.669V119.968H125.805V128.512C125.805 131.056 126.333 131.584 128.637 131.584H129.861V130.24H129.093C127.365 130.24 127.317 129.904 127.317 128.224V119.968H129.861V118.672H127.317V115.768H125.805V118.672ZM132.423 118.672V131.584H133.911V118.672H132.423ZM132.423 114.184V116.56H133.911V114.184H132.423ZM138.997 118.672H137.509V131.584H138.997V124.408C138.997 121.672 140.677 119.8 142.909 119.8C145.525 119.8 146.149 121.432 146.149 123.856V131.584H147.637V123.448C147.637 120.28 146.341 118.456 143.293 118.456C140.893 118.456 139.621 119.632 138.997 120.856V118.672ZM159.485 131.296C159.485 133.696 157.997 134.8 155.573 134.8C153.389 134.8 152.261 133.672 152.093 132.304H150.533C150.773 134.632 152.861 136.096 155.525 136.096C158.597 136.096 160.997 134.584 160.997 131.128V118.672H159.485V120.904C158.597 119.344 157.037 118.456 155.117 118.456C152.165 118.456 149.741 120.904 149.741 124.912C149.741 128.944 152.165 131.368 155.117 131.368C157.037 131.368 158.597 130.504 159.485 128.944V131.296ZM159.605 124.912C159.605 128.488 157.397 130.048 155.429 130.048C153.029 130.048 151.349 128.104 151.349 124.912C151.349 121.744 153.029 119.8 155.429 119.8C157.397 119.8 159.605 121.36 159.605 124.912Z" fill="white"/>
<path d="M551.853 113.457V130.857H553.461V123.657H557.061C561.237 123.657 564.189 122.793 564.189 118.593C564.189 114.417 561.237 113.457 557.061 113.457H551.853ZM557.277 114.921C560.133 114.921 562.509 115.353 562.509 118.593C562.509 121.833 560.133 122.169 557.277 122.169H553.461V114.921H557.277ZM567.889 113.457H566.401V130.857H567.889V113.457ZM572.135 127.617C572.135 125.601 574.391 124.905 579.647 124.329V124.953C579.647 128.625 577.487 129.849 575.087 129.849C573.383 129.849 572.135 128.985 572.135 127.617ZM579.671 130.857H581.183C581.111 129.465 581.039 128.193 581.039 126.729C581.039 125.697 581.063 124.521 581.063 122.745C581.063 118.905 579.071 117.657 576.071 117.657C573.191 117.657 571.127 119.337 570.791 121.881H572.351C572.471 120.201 573.791 118.977 575.975 118.977C577.847 118.977 579.575 119.625 579.575 122.553V123.009C573.359 123.633 570.479 124.713 570.479 127.641C570.479 129.777 572.351 131.169 574.751 131.169C577.151 131.169 578.759 130.257 579.599 128.889L579.671 130.857ZM584.336 135.057C586.664 135.057 587.288 134.649 588.2 132.153L593.504 117.945H591.896L588.008 128.793L584 117.945H582.32L587.264 130.857L586.856 131.889C586.184 133.689 585.584 133.761 584.36 133.761H583.496V135.057H584.336ZM595.66 117.945H593.884V119.241H595.66V130.857H597.148V119.241H599.716V117.945H597.148V116.553C597.148 114.969 597.34 114.825 598.972 114.825H599.716V113.457H598.66C596.212 113.457 595.66 114.225 595.66 116.337V117.945ZM609.877 130.857H611.365V117.945H609.877V125.217C609.877 127.953 608.173 129.825 606.109 129.825C603.589 129.825 603.013 128.193 603.013 125.769V117.945H601.525V126.177C601.525 129.345 602.773 131.169 605.725 131.169C607.957 131.169 609.253 129.993 609.877 128.769V130.857ZM616.452 113.457H614.964V130.857H616.452V113.457Z" fill="white"/>
<defs>
<linearGradient id="paint0_linear_5764_2" x1="0.000190735" y1="124.415" x2="250.385" y2="124.415" gradientUnits="userSpaceOnUse">
<stop stop-color="#FDA9FF"/>
<stop offset="0.272599" stop-color="#C9B8FF"/>
<stop offset="1" stop-color="#4DFFE5"/>
</linearGradient>
<linearGradient id="paint1_linear_5764_2" x1="459.038" y1="124.204" x2="709" y2="124.204" gradientUnits="userSpaceOnUse">
<stop stop-color="#FDA9FF"/>
<stop offset="0.272599" stop-color="#C9B8FF"/>
<stop offset="1" stop-color="#4DFFE5"/>
</linearGradient>
<linearGradient id="paint2_linear_5764_2" x1="229.519" y1="124.415" x2="479.904" y2="124.415" gradientUnits="userSpaceOnUse">
<stop stop-color="#FDA9FF"/>
<stop offset="0.272599" stop-color="#C9B8FF"/>
<stop offset="1" stop-color="#4DFFE5"/>
</linearGradient>
</defs>
</svg>
