<svg width="385" height="259" viewBox="0 0 385 259" fill="none" xmlns="http://www.w3.org/2000/svg">
<path d="M0 254H25.2L49 190.3H169.75L193.9 254H219.45L122.85 0.25H96.25L0 254ZM108.85 29.3L161.35 168.6H57.05L108.85 29.3Z" fill="white"/>
<path d="M252.399 206.75C252.399 177.35 285.299 167.2 361.949 158.8V167.9C361.949 221.45 330.449 239.3 295.449 239.3C270.599 239.3 252.399 226.7 252.399 206.75ZM362.299 254H384.349C383.299 233.7 382.249 215.15 382.249 193.8C382.249 178.75 382.599 161.6 382.599 135.7C382.599 79.7 353.549 61.5 309.799 61.5C267.799 61.5 237.699 86 232.799 123.1H255.549C257.299 98.6 276.549 80.75 308.399 80.75C335.699 80.75 360.899 90.2 360.899 132.9V139.55C270.249 148.65 228.249 164.4 228.249 207.1C228.249 238.25 255.549 258.55 290.549 258.55C325.549 258.55 348.999 245.25 361.249 225.3L362.299 254Z" fill="white"/>
</svg>
