<svg width="387" height="266" viewBox="0 0 387 266" fill="none" xmlns="http://www.w3.org/2000/svg">
<path d="M211.6 262C198.8 245.6 190.8 224.4 182.8 200L118.8 0H94.8L30.8 200C22 226.4 13.2 246.8 0 262H51.2C47.6 256.4 45.6 244.8 45.6 232.4C45.6 222.4 47.2 211.6 50 202L56.8 178H120L126.8 202C129.6 212.8 131.2 224.4 131.2 235.2C131.2 246.4 129.6 256.8 126.4 262H211.6ZM60.8 164.4L89.2 65.6L116.4 164.4H60.8Z" fill="white"/>
<path d="M386.444 262C376.844 240 375.644 225.2 375.644 195.6V136.4C375.644 92 361.244 57.2 306.844 57.2C256.044 57.2 232.044 88 232.044 122.8V133.6L285.244 136.4C279.244 122.8 276.444 109.6 276.444 99.2C276.444 82.8 284.444 73.6 298.044 73.6C321.244 73.6 325.644 98.4 325.644 123.6V138.4C325.644 146.4 315.644 152.4 284.444 165.6C256.844 176.8 223.644 189.6 223.644 222.8C223.644 248 241.644 265.2 268.844 265.2C292.044 265.2 312.444 253.6 326.044 234.8C326.844 245.2 329.644 255.2 333.644 262H386.444ZM301.244 232.4C283.244 232.4 274.044 220.4 274.044 202.8C274.044 182.4 283.244 173.2 313.244 173.2C323.644 173.2 325.644 174.8 325.644 183.2V225.2C318.444 229.6 310.044 232.4 301.244 232.4Z" fill="white"/>
</svg>
