<svg width="16" height="13" viewBox="0 0 16 13" fill="none" xmlns="http://www.w3.org/2000/svg">
<path d="M5.34489 12.1523C10.8062 12.1523 13.7858 7.62888 13.7858 3.71145C13.7858 3.58159 13.7858 3.45173 13.7786 3.32908C14.3557 2.91065 14.8607 2.38399 15.2575 1.79241C14.7237 2.03049 14.1537 2.1892 13.5549 2.26135C14.1681 1.89341 14.6371 1.31626 14.8607 0.616457C14.2908 0.955535 13.6559 1.20083 12.9778 1.3379C12.4367 0.760746 11.6647 0.400024 10.8134 0.400024C9.17576 0.400024 7.8483 1.72748 7.8483 3.36515C7.8483 3.59602 7.87716 3.82688 7.92766 4.04331C5.45311 3.91345 3.25992 2.73028 1.80261 0.941107C1.54289 1.37397 1.3986 1.8862 1.3986 2.42728C1.3986 3.45894 1.92526 4.36796 2.71884 4.89461C2.22826 4.8874 1.77375 4.75032 1.37696 4.52668C1.37696 4.54111 1.37696 4.54832 1.37696 4.56275C1.37696 5.99842 2.40141 7.20323 3.75772 7.47016C3.50522 7.53509 3.2455 7.57117 2.97856 7.57117C2.79099 7.57117 2.60341 7.54952 2.42305 7.52067C2.7982 8.69662 3.89479 9.55513 5.19339 9.58399C4.17616 10.3776 2.8992 10.8537 1.50682 10.8537C1.26874 10.8537 1.03067 10.8393 0.799805 10.8104C2.10562 11.6617 3.66393 12.1523 5.34489 12.1523Z" fill="currentColor"/>
</svg>
