<svg width="14" height="14" viewBox="0 0 14 14" fill="none" xmlns="http://www.w3.org/2000/svg">
<path d="M14 7C14 3.13048 10.8625 0 7 0C3.13745 0 0 3.13048 0 7C0 10.493 2.55876 13.3865 5.90538 13.9163V9.02191H4.12749V7H5.90538V5.45916C5.90538 3.70219 6.9512 2.73307 8.54781 2.73307C9.31474 2.73307 10.1165 2.87251 10.1165 2.87251V4.59462H9.23108C8.35956 4.59462 8.08765 5.13147 8.08765 5.68924V7H10.0259L9.71215 9.02191H8.08068V13.9163C11.4273 13.3934 13.9861 10.493 13.9861 7H14Z" fill="currentColor"/>
</svg>
