<svg width="14" height="14" viewBox="0 0 14 14" fill="none" xmlns="http://www.w3.org/2000/svg">
<path d="M12.96 0H1.03278C0.466185 0 0 0.451844 0 1.01127V12.9887C0 13.5482 0.459013 14 1.03278 14H12.96C13.5338 14 14 13.5482 14 12.9887V1.01127C14 0.451844 13.5338 0 12.96 0ZM4.15267 11.9273H2.07275V5.25H4.15267V11.9273ZM3.1127 4.33197C2.44569 4.33197 1.90778 3.79406 1.90778 3.12705C1.90778 2.46004 2.44569 1.92213 3.1127 1.92213C3.77971 1.92213 4.31762 2.46004 4.31762 3.12705C4.31762 3.79406 3.77971 4.33197 3.1127 4.33197ZM11.9273 11.9273H9.85451V8.67828C9.85451 7.90369 9.84016 6.90676 8.77869 6.90676C7.71721 6.90676 7.53073 7.75308 7.53073 8.6209V11.9273H5.45799V5.25H7.44467V6.16086H7.47335C7.75307 5.6373 8.42725 5.08504 9.43852 5.08504C11.54 5.08504 11.9273 6.46926 11.9273 8.26947V11.9344V11.9273Z" fill="currentColor"/>
</svg>
